:SAMPLES-PER-SECOND 30
:FULLY-SPECIFIED
:DEGREES
311
root  -4.28818 40.9708 -1.19428 4.89584 -86.5576 -2.44122
RightUpLeg  3.00674 -0.755714 0.77794
RightLeg  -5.89553 -23.8356 3.65342
RightFoot  0.417902 -0.0488443 0.503353
RightToes  -3.1126e-008 1.75238e-005 3.56266e-009
Spine  4.1069 3.7259 4.06188
Spine1  -10.287 4.42486 -8.31015
HEad  0.297936 -9.27963 2.14338
LeftShoulder1  0.220495 2.47443 -14.4929
LeftArm  -25.7944 46.3333 -60.6948
LeftForeArm  107.862 -80.5674 -93.2781
LeftHand  -0.542245 -4.60684 6.58538
RightShoulder  1.16756 1.26181 18.0128
RightArm  -24.266 26.4591 43.7685
RightForeArm  86.4643 79.5324 93.9711
RightHand  -0.19501 8.51996 -2.00882
LeftUpLeg  2.42806 1.93586 5.02584
LeftLeg  -5.21394 13.3321 -1.01085
LeftFoot  2.04116 0.644326 -5.59355
LeftToes  4.78049e-008 1.46235e-008 1.34219e-009
312
root  -4.28303 40.9722 -1.16719 7.27379 -87.1349 -4.82098
RightUpLeg  3.01501 -0.60208 0.864245
RightLeg  -6.02477 -23.4167 3.58091
RightFoot  0.565748 -0.0525176 0.541798
RightToes  -3.1126e-008 1.75238e-005 3.56266e-009
Spine  4.01814 3.76455 3.83626
Spine1  -10.0949 4.42831 -7.7993
HEad  -0.208097 -8.7732 2.02064
LeftShoulder1  0.170257 2.71009 -14.5197
LeftArm  -25.5113 45.5453 -59.6362
LeftForeArm  106.346 -80.5633 -92.0456
LeftHand  -0.543604 -4.29528 6.79469
RightShoulder  1.15664 1.27347 17.6978
RightArm  -24.2994 26.5586 43.7718
RightForeArm  85.5705 79.5118 93.6194
RightHand  -0.151411 8.68102 -1.63385
LeftUpLeg  2.51215 1.92696 5.03035
LeftLeg  -5.18348 13.9583 -0.984634
LeftFoot  1.96896 0.648855 -5.66353
LeftToes  4.78049e-008 1.46235e-008 1.34219e-009
313
root  -4.25828 40.9771 -1.11549 10.9939 -87.6844 -8.49254
RightUpLeg  2.97014 -0.439289 0.931798
RightLeg  -6.22801 -23.0235 3.51462
RightFoot  0.816056 -0.0551239 0.561203
RightToes  -3.1126e-008 1.75238e-005 3.56266e-009
Spine  4.28549 3.74204 4.05922
Spine1  -10.4073 4.40283 -7.97768
HEad  -0.561766 -8.4289 2.23802
LeftShoulder1  0.224117 2.45935 -14.531
LeftArm  -25.9856 45.0838 -58.754
LeftForeArm  105.126 -80.5536 -91.1161
LeftHand  -0.523787 -3.78751 6.88857
RightShoulder  1.18895 1.38613 17.8088
RightArm  -24.4325 26.5816 43.1526
RightForeArm  86.0896 79.5127 94.0131
RightHand  -0.219767 8.39026 -2.22844
LeftUpLeg  2.49758 1.93562 5.03323
LeftLeg  -5.13828 14.5482 -1.00831
LeftFoot  1.89003 0.648535 -5.68477
LeftToes  4.78049e-008 1.46235e-008 1.34219e-009
314
root  -4.2431 40.9808 -1.05733 13.4854 -88.1826 -10.942
RightUpLeg  2.81011 -0.469466 0.816922
RightLeg  -6.09342 -22.4903 3.41674
RightFoot  0.881627 -0.0608829 0.622309
RightToes  -3.1126e-008 1.75238e-005 3.56266e-009
Spine  4.12504 3.69323 3.90142
Spine1  -10.1269 4.33754 -7.61302
HEad  -0.829618 -8.27303 2.24681
LeftShoulder1  0.23088 2.43192 -14.6433
LeftArm  -26.0824 44.3473 -58.0165
LeftForeArm  103.223 -80.5431 -89.4715
LeftHand  -0.549121 -3.77648 7.21837
RightShoulder  1.12008 1.16937 17.4325
RightArm  -24.6673 26.5431 43.0238
RightForeArm  85.0233 79.5427 92.6069
RightHand  -0.227983 8.36582 -2.2873
LeftUpLeg  2.58579 1.87682 4.9155
LeftLeg  -5.28155 15.0664 -1.07693
LeftFoot  1.92977 0.637964 -5.55775
LeftToes  4.78049e-008 1.46235e-008 1.34219e-009
315
root  -4.22739 40.9857 -1.00841 14.9819 -88.3995 -12.3815
RightUpLeg  2.68273 -0.489644 0.71637
RightLeg  -6.03539 -22.2064 3.35744
RightFoot  0.954769 -0.0681201 0.694377
RightToes  -3.1126e-008 1.75238e-005 3.56266e-009
Spine  3.98044 3.44687 3.40398
Spine1  -9.81014 4.04295 -6.83303
HEad  -1.23257 -8.36417 2.2468
LeftShoulder1  0.169569 2.73142 -15.0504
LeftArm  -25.6589 43.4164 -57.057
LeftForeArm  102.871 -80.546 -88.9812
LeftHand  -0.542562 -3.97446 6.9958
RightShoulder  1.04805 0.914209 17.1748
RightArm  -25.1348 26.6128 42.713
RightForeArm  85.755 79.5387 93.2891
RightHand  -0.401126 8.80396 -3.66764
LeftUpLeg  2.59388 1.80996 4.80605
LeftLeg  -5.40509 15.4073 -1.1296
LeftFoot  1.98456 0.631765 -5.5031
LeftToes  4.78049e-008 1.46235e-008 1.34219e-009
316
root  -4.19201 40.9898 -0.928553 19.0924 -88.7313 -16.508
RightUpLeg  2.59527 -0.510475 0.599706
RightLeg  -5.97564 -21.8326 3.27796
RightFoot  1.06961 -0.0789849 0.793134
RightToes  -3.1126e-008 1.75238e-005 3.56266e-009
Spine  4.00506 3.17073 3.28873
Spine1  -9.62725 3.7474 -6.48039
HEad  -1.62505 -8.06115 2.051
LeftShoulder1  0.134621 2.88864 -14.9841
LeftArm  -25.8039 42.2133 -57.1905
LeftForeArm  101.709 -80.5439 -87.5256
LeftHand  -0.548698 -3.83029 7.17462
RightShoulder  1.03934 0.875231 17.1764
RightArm  -26.0604 26.3958 41.7302
RightForeArm  85.9041 79.5198 93.7467
RightHand  -0.306935 8.77101 -2.88382
LeftUpLeg  2.6503 1.70632 4.64681
LeftLeg  -5.49135 15.9569 -1.14763
LeftFoot  1.98999 0.626976 -5.46683
LeftToes  4.78049e-008 1.46235e-008 1.34219e-009
317
root  -4.17516 40.9967 -0.849735 21.7395 -88.9791 -19.2051
RightUpLeg  2.57484 -0.518014 0.481549
RightLeg  -5.90813 -21.5345 3.15024
RightFoot  1.16998 -0.0938534 0.928672
RightToes  -3.1126e-008 1.75238e-005 3.56266e-009
Spine  3.83023 2.91441 2.88216
Spine1  -9.35301 3.43809 -5.76033
HEad  -1.8228 -7.62878 1.91598
LeftShoulder1  0.17255 2.72022 -15.1637
LeftArm  -25.348 40.8914 -56.8555
LeftForeArm  100.507 -80.5394 -86.2425
LeftHand  -0.547547 -4.10731 6.96547
RightShoulder  0.932701 0.469748 16.9073
RightArm  -26.9303 26.1277 40.7975
RightForeArm  85.3535 79.5155 93.3799
RightHand  -0.103016 8.41516 -1.25561
LeftUpLeg  2.79593 1.64592 4.51394
LeftLeg  -5.64279 16.2246 -1.22941
LeftFoot  2.02798 0.620516 -5.39797
LeftToes  4.78049e-008 1.46235e-008 1.34219e-009
318
root  -4.1482 41.0024 -0.771208 34.7837 -89.1732 -32.3221
RightUpLeg  2.57664 -0.497989 0.411693
RightLeg  -5.87561 -21.3151 3.03926
RightFoot  1.29943 -0.104791 1.02568
RightToes  -3.1126e-008 1.75238e-005 3.56266e-009
Spine  4.0006 2.50931 2.43323
Spine1  -9.68687 2.95447 -5.04924
HEad  -1.57223 -6.8487 1.83964
LeftShoulder1  0.218749 2.50579 -15.0208
LeftArm  -24.6891 39.841 -56.8565
LeftForeArm  100.028 -80.5417 -85.7237
LeftHand  -0.579101 -4.04086 7.39907
RightShoulder  1.00857 0.760597 17.0818
RightArm  -28.3229 25.0912 38.8511
RightForeArm  84.5111 79.4654 93.5926
RightHand  -0.158556 8.06056 -1.74038
LeftUpLeg  2.93339 1.6231 4.40229
LeftLeg  -5.78173 16.5624 -1.32034
LeftFoot  2.04475 0.600855 -5.22469
LeftToes  4.78049e-008 1.46235e-008 1.34219e-009
319
root  -4.10589 41.0065 -0.660872 96.6908 -89.601 -94.1661
RightUpLeg  2.20578 -0.461176 0.248526
RightLeg  -5.50839 -20.5431 2.7361
RightFoot  1.38874 -0.129572 1.24601
RightToes  -3.1126e-008 1.75238e-005 3.56266e-009
Spine  4.02821 2.27822 2.32181
Spine1  -9.72517 2.67798 -4.58391
HEad  -1.49417 -6.02564 1.47989
LeftShoulder1  0.258972 2.34042 -15.4204
LeftArm  -23.7052 38.249 -56.6506
LeftForeArm  99.5239 -80.5486 -84.7803
LeftHand  -0.571197 -4.16574 7.21379
RightShoulder  0.877199 0.285948 16.5619
RightArm  -29.3202 24.3863 38.0608
RightForeArm  84.6092 79.4774 93.4526
RightHand  -0.159252 8.12418 -1.74417
LeftUpLeg  3.02519 1.53771 4.20496
LeftLeg  -5.98804 17.4388 -1.48903
LeftFoot  2.05926 0.590218 -5.1293
LeftToes  4.78049e-008 1.46235e-008 1.34219e-009
320
root  -4.08658 41.0143 -0.569115 160.381 -89.1434 -157.925
RightUpLeg  2.21093 -0.414386 0.127613
RightLeg  -5.57263 -19.9179 2.56737
RightFoot  1.59024 -0.137661 1.30993
RightToes  -3.1126e-008 1.75238e-005 3.56266e-009
Spine  3.99918 1.72081 1.87052
Spine1  -9.62599 2.06201 -3.85592
HEad  -1.43548 -4.75955 1.46108
LeftShoulder1  0.298068 2.1712 -15.5187
LeftArm  -22.8708 37.1195 -56.6926
LeftForeArm  100.633 -80.5676 -85.7738
LeftHand  -0.564893 -4.19424 7.11784
RightShoulder  0.9172 0.407422 16.8784
RightArm  -30.812 23.9413 36.2221
RightForeArm  82.8646 79.4688 92.1541
RightHand  -0.102178 8.4896 -1.23489
LeftUpLeg  3.27279 1.54984 4.05224
LeftLeg  -6.18193 18.1133 -1.71152
LeftFoot  2.03167 0.56963 -4.9631
LeftToes  4.78049e-008 1.46235e-008 1.34219e-009
321
root  -4.04469 41.0167 -0.459695 168.974 -88.3139 -166.495
RightUpLeg  2.08402 -0.532263 -0.0708173
RightLeg  -5.65434 -18.9971 2.62277
RightFoot  1.79509 -0.146429 1.37757
RightToes  -3.1126e-008 1.75238e-005 3.56266e-009
Spine  4.08481 1.39816 1.3065
Spine1  -9.70921 1.63017 -2.70708
HEad  -1.47815 -3.72279 1.1847
LeftShoulder1  0.341865 2.0083 -16.0748
LeftArm  -21.3178 35.5862 -56.8031
LeftForeArm  99.9767 -80.5669 -84.8672
LeftHand  -0.565223 -4.01478 7.24689
RightShoulder  0.7969 0.0117082 16.0484
RightArm  -32.4039 22.9914 35.1606
RightForeArm  82.9765 79.4421 92.7475
RightHand  -0.129711 8.43049 -1.4677
LeftUpLeg  3.27344 1.50072 3.88379
LeftLeg  -6.13231 19.0213 -1.78532
LeftFoot  1.95126 0.544549 -4.77417
LeftToes  4.78049e-008 1.46235e-008 1.34219e-009
